<svg width="137" height="66" xmlns="http://www.w3.org/2000/svg" xmlns:xlink="http://www.w3.org/1999/xlink" xml:space="preserve" overflow="hidden"><g transform="translate(-328 -8)"><g><g><g><g><path d="M6.44236 30.0465 12.5042 30.0465 14.7767 32.2761 14.7767 42.1862 12.799 44.1371 6.44236 44.1371 6.44236 30.0465ZM11.8128 41.468 11.8128 32.7263 9.39556 32.7263 9.39556 41.468 11.8128 41.468Z" fill="#3C5BA8" fill-rule="nonzero" fill-opacity="1" transform="matrix(1 0 0 1.07964 329.111 9)"/><path d="M15.9558 30.0465 22.7948 30.0465 22.7948 32.7263 18.8769 32.7263 18.8769 35.4437 22.6019 35.4437 22.6019 38.0753 18.9197 38.0753 18.9197 41.468 22.8966 41.468 22.8966 44.1371 15.9558 44.1371 15.9558 30.0465Z" fill="#3C5BA8" fill-rule="nonzero" fill-opacity="1" transform="matrix(1 0 0 1.07964 329.111 9)"/><path d="M29.473 30.0465 32.5066 30.0465 30.6361 44.1371 25.957 44.1371 24.049 30.0465 27.1308 30.0465 28.2992 40.8731 29.4784 30.0465Z" fill="#3C5BA8" fill-rule="nonzero" fill-opacity="1" transform="matrix(1 0 0 1.07964 329.111 9)"/><path d="M33.675 30.0465 42.1809 30.0465 42.1809 44.1371 33.675 44.1371 33.675 30.0465ZM36.6389 41.468 39.233 41.468 39.233 32.7263 36.6389 32.7263 36.6389 41.468Z" fill="#3C5BA8" fill-rule="nonzero" fill-opacity="1" transform="matrix(1 0 0 1.07964 329.111 9)"/><path d="M46.4311 44.1371 43.4779 44.1371 43.4779 32.0349 45.6111 30.0465 51.6515 30.0465 51.6515 40.5622 46.4257 40.5622 46.4257 44.1371ZM48.7036 37.8609 48.7036 32.7263 46.4311 32.7263 46.4311 37.8609 48.7036 37.8609Z" fill="#3C5BA8" fill-rule="nonzero" fill-opacity="1" transform="matrix(1 0 0 1.07964 329.111 9)"/><path d="M60.6557 44.1371 52.9056 44.1371 52.9056 39.7529 55.8588 39.7529 55.8588 41.468 57.6918 41.468 57.6918 39.2277 53.0021 35.6903 53.0021 30.0465 60.5646 30.0465 60.5646 34.2378 57.8848 34.2378 57.8848 32.7371 55.9553 32.7371 55.9553 34.5808 60.6504 38.1075 60.6504 44.1371Z" fill="#3C5BA8" fill-rule="nonzero" fill-opacity="1" transform="matrix(1 0 0 1.07964 329.111 9)"/><path d="M66.4871 30.0465 73.3261 30.0465 73.3261 32.7263 69.4081 32.7263 69.4081 35.4437 73.1331 35.4437 73.1331 38.0753 69.451 38.0753 69.451 41.468 73.4279 41.468 73.4279 44.1371 66.4871 44.1371 66.4871 30.0465Z" fill="#EF4A23" fill-rule="nonzero" fill-opacity="1" transform="matrix(1 0 0 1.07964 329.111 9)"/><path d="M77.8872 44.1371 74.6982 44.1371 77.2708 36.7408 75.1484 30.0465 78.182 30.0465 79.4201 34.2056 80.6796 30.0465 83.7132 30.0465 81.5693 36.7408 84.142 44.1371 80.9529 44.1371 79.4201 39.7636 77.8926 44.1371Z" fill="#EF4A23" fill-rule="nonzero" fill-opacity="1" transform="matrix(1 0 0 1.07964 329.111 9)"/><path d="M88.1403 44.1371 85.1871 44.1371 85.1871 32.0349 87.3203 30.0465 93.3606 30.0465 93.3606 40.5622 88.1349 40.5622 88.1349 44.1371ZM90.4128 37.8609 90.4128 32.7263 88.1403 32.7263 88.1403 37.8609 90.4128 37.8609Z" fill="#EF4A23" fill-rule="nonzero" fill-opacity="1" transform="matrix(1 0 0 1.07964 329.111 9)"/><path d="M94.6202 30.0465 101.459 30.0465 101.459 32.7263 97.5412 32.7263 97.5412 35.4437 101.266 35.4437 101.266 38.0753 97.5841 38.0753 97.5841 41.468 101.561 41.468 101.561 44.1371 94.6202 44.1371 94.6202 30.0465Z" fill="#EF4A23" fill-rule="nonzero" fill-opacity="1" transform="matrix(1 0 0 1.07964 329.111 9)"/><path d="M108.132 44.1371 106.379 39.0401 105.602 39.0401 105.602 44.1371 102.649 44.1371 102.649 32.0349 104.793 30.0465 110.828 30.0465 110.828 39.0026 109.231 39.0026 111.101 44.1371 108.137 44.1371ZM107.869 36.3977 107.869 32.7263 105.597 32.7263 105.597 36.3977 107.869 36.3977Z" fill="#EF4A23" fill-rule="nonzero" fill-opacity="1" transform="matrix(1 0 0 1.07964 329.111 9)"/><path d="M120.089 32.7263 117.431 32.7263 117.431 44.1371 114.456 44.1371 114.456 32.7263 111.696 32.7263 111.696 30.0465 120.089 30.0465 120.089 32.7263Z" fill="#EF4A23" fill-rule="nonzero" fill-opacity="1" transform="matrix(1 0 0 1.07964 329.111 9)"/><path d="M129.035 44.1371 121.285 44.1371 121.285 39.7529 124.238 39.7529 124.238 41.468 126.071 41.468 126.071 39.2277 121.381 35.6903 121.381 30.0465 128.944 30.0465 128.944 34.2378 126.264 34.2378 126.264 32.7371 124.334 32.7371 124.334 34.5808 129.029 38.1075 129.029 44.1371Z" fill="#EF4A23" fill-rule="nonzero" fill-opacity="1" transform="matrix(1 0 0 1.07964 329.111 9)"/><path d="M9.283 53.2218C9.14901 53.5005 8.96678 53.7149 8.7256 53.865 8.48441 54.0151 8.21106 54.0901 7.89484 54.0901 7.57862 54.0901 7.31063 54.0151 7.06945 53.865 6.82826 53.7149 6.64067 53.5005 6.50668 53.2165 6.37269 52.9378 6.30301 52.6055 6.30301 52.2249L6.30301 52.032C6.30301 51.6515 6.36733 51.3245 6.50132 51.0404 6.63531 50.7617 6.8229 50.542 7.05873 50.3919 7.29991 50.2418 7.57326 50.1668 7.88412 50.1668 8.19498 50.1668 8.47369 50.2418 8.71488 50.3919 8.95606 50.542 9.13829 50.7564 9.27228 51.0404 9.40628 51.3191 9.47059 51.6515 9.47059 52.032L9.47059 52.2249C9.47059 52.6055 9.40628 52.9378 9.27228 53.2165ZM8.5648 51.0726C8.40937 50.8475 8.18427 50.7403 7.89484 50.7403 7.70725 50.7403 7.54646 50.7885 7.41247 50.8904 7.27848 50.9922 7.17128 51.1369 7.10161 51.3299 7.02657 51.5228 6.99441 51.7586 6.99441 52.0373L6.99441 52.2357C6.99441 52.5144 7.03193 52.7502 7.10697 52.9431 7.182 53.1361 7.28384 53.2862 7.42319 53.388 7.56254 53.4898 7.72333 53.5381 7.91092 53.5381 8.20034 53.5381 8.42545 53.4255 8.58088 53.2058 8.73631 52.9807 8.81671 52.6591 8.81671 52.2357L8.81671 52.0373C8.81671 51.6139 8.73631 51.2977 8.58088 51.0726Z" fill="#231F20" fill-rule="nonzero" fill-opacity="1" transform="matrix(1 0 0 1.07964 329.111 9)"/><path d="M14.6427 52.7716C14.6427 53.0557 14.5784 53.2969 14.4551 53.4952 14.3318 53.6935 14.1603 53.8436 13.9459 53.9454 13.7316 54.0472 13.485 54.0955 13.217 54.0955 12.949 54.0955 12.6918 54.0472 12.4774 53.9454 12.263 53.8436 12.0915 53.6989 11.9736 53.5005 11.8503 53.3022 11.7913 53.0611 11.7913 52.777L11.7913 50.2365 12.4667 50.2365 12.4667 52.777C12.4667 53.0396 12.531 53.2326 12.665 53.3612 12.799 53.4898 12.9812 53.5541 13.217 53.5541 13.4529 53.5541 13.6404 53.4898 13.7744 53.3612 13.9031 53.2326 13.9674 53.0396 13.9674 52.777L13.9674 50.2365 14.6427 50.2365 14.6427 52.777Z" fill="#231F20" fill-rule="nonzero" fill-opacity="1" transform="matrix(1 0 0 1.07964 329.111 9)"/><path d="M19.9435 54.0044 19.9435 54.0365 19.2145 54.0365 18.4588 52.5787 17.7353 52.5787 17.7353 54.0365 17.0599 54.0365 17.0599 50.2258 18.4106 50.2258C18.8501 50.2258 19.1877 50.3222 19.4289 50.5206 19.6701 50.7189 19.788 51.0029 19.788 51.3727 19.788 51.6246 19.7291 51.839 19.6058 52.0106 19.4879 52.1874 19.3164 52.3214 19.0913 52.4125L19.9435 53.999ZM17.7353 52.032 18.4106 52.032C18.6357 52.032 18.8126 51.973 18.9305 51.8605 19.0484 51.7479 19.1073 51.5979 19.1073 51.4103 19.1073 51.2066 19.0484 51.0512 18.9358 50.944 18.8233 50.8314 18.6464 50.7778 18.4052 50.7778L17.7353 50.7778 17.7353 52.0373Z" fill="#231F20" fill-rule="nonzero" fill-opacity="1" transform="matrix(1 0 0 1.07964 329.111 9)"/><path d="M26.284 52.4072 25.8552 52.8627 25.8552 54.0419 25.1799 54.0419 25.1799 50.2311 25.8552 50.2311 25.8552 52.0106 26.2197 51.555 27.313 50.2311 28.1384 50.2311 26.7288 51.9141 28.2081 54.0365 27.4042 54.0365 26.284 52.4018Z" fill="#231F20" fill-rule="nonzero" fill-opacity="1" transform="matrix(1 0 0 1.07964 329.111 9)"/><path d="M32.6352 54.0419 30.9576 51.362 30.9576 54.0419 30.2823 54.0419 30.2823 50.2311 30.9576 50.2311 32.6406 52.9163 32.6406 50.2311 33.3106 50.2311 33.3106 54.0419 32.6352 54.0419Z" fill="#231F20" fill-rule="nonzero" fill-opacity="1" transform="matrix(1 0 0 1.07964 329.111 9)"/><path d="M38.6542 53.2218C38.5202 53.5005 38.3379 53.7149 38.0968 53.865 37.8556 54.0151 37.5822 54.0901 37.266 54.0901 36.9498 54.0901 36.6818 54.0151 36.4406 53.865 36.1994 53.7149 36.0118 53.5005 35.8778 53.2165 35.7439 52.9378 35.6742 52.6055 35.6742 52.2249L35.6742 52.032C35.6742 51.6515 35.7385 51.3245 35.8725 51.0404 36.0065 50.7617 36.1941 50.542 36.4299 50.3919 36.6711 50.2418 36.9444 50.1668 37.2553 50.1668 37.5662 50.1668 37.8449 50.2418 38.086 50.3919 38.3272 50.542 38.5095 50.7564 38.6435 51.0404 38.7774 51.3191 38.8418 51.6515 38.8418 52.032L38.8418 52.2249C38.8418 52.6055 38.7774 52.9378 38.6435 53.2165ZM37.936 51.0726C37.7805 50.8475 37.5554 50.7403 37.266 50.7403 37.0784 50.7403 36.9176 50.7885 36.7836 50.8904 36.6496 50.9922 36.5424 51.1369 36.4728 51.3299 36.3977 51.5228 36.3656 51.7586 36.3656 52.0373L36.3656 52.2357C36.3656 52.5144 36.4031 52.7502 36.4781 52.9431 36.5532 53.1361 36.655 53.2862 36.7944 53.388 36.9337 53.4898 37.0945 53.5381 37.2821 53.5381 37.5715 53.5381 37.7966 53.4255 37.952 53.2058 38.1075 52.9807 38.1879 52.6591 38.1879 52.2357L38.1879 52.0373C38.1879 51.6139 38.1075 51.2977 37.952 51.0726Z" fill="#231F20" fill-rule="nonzero" fill-opacity="1" transform="matrix(1 0 0 1.07964 329.111 9)"/><path d="M45.4503 50.2311 44.5766 54.0419 43.9174 54.0419 43.2099 51.287 42.4864 54.0419 41.8271 54.0419 40.9535 50.2311 41.6234 50.2311 42.2077 53.0718 42.9205 50.2311 43.4886 50.2311 44.1961 53.0825 44.7696 50.2311 45.4449 50.2311Z" fill="#231F20" fill-rule="nonzero" fill-opacity="1" transform="matrix(1 0 0 1.07964 329.111 9)"/><path d="M50.0435 53.4952 50.0435 54.0419 47.6424 54.0419 47.6424 50.2311 48.3177 50.2311 48.3177 53.4952 50.0382 53.4952Z" fill="#231F20" fill-rule="nonzero" fill-opacity="1" transform="matrix(1 0 0 1.07964 329.111 9)"/><path d="M54.7601 53.4952 54.7601 54.0419 52.2625 54.0419 52.2625 50.2311 54.744 50.2311 54.744 50.7778 52.9378 50.7778 52.9378 51.8122 54.4975 51.8122 54.4975 52.3482 52.9378 52.3482 52.9378 53.5005 54.7601 53.5005Z" fill="#231F20" fill-rule="nonzero" fill-opacity="1" transform="matrix(1 0 0 1.07964 329.111 9)"/><path d="M59.0318 50.4562C59.289 50.6063 59.4927 50.8153 59.6374 51.094 59.7821 51.3674 59.8518 51.6836 59.8518 52.0481L59.8518 52.2357C59.8518 52.6001 59.7821 52.9163 59.6374 53.1897 59.4927 53.463 59.289 53.6721 59.0264 53.8221 58.7638 53.9722 58.4583 54.0472 58.1099 54.0472L57.0058 54.0472 57.0058 50.2365 58.1367 50.2365C58.4743 50.2365 58.7745 50.3115 59.0318 50.4616ZM59.1711 52.0373C59.1711 51.63 59.08 51.3191 58.9031 51.0994 58.7263 50.885 58.469 50.7725 58.1313 50.7725L57.6811 50.7725 57.6811 53.4898 58.1099 53.4898C58.4583 53.4898 58.7263 53.3773 58.9031 53.1575 59.0854 52.9378 59.1765 52.6269 59.1765 52.2196L59.1765 52.0266Z" fill="#231F20" fill-rule="nonzero" fill-opacity="1" transform="matrix(1 0 0 1.07964 329.111 9)"/><path d="M64.6487 53.9293C64.4236 54.0419 64.1235 54.0955 63.7429 54.0955 63.4214 54.0955 63.1373 54.0204 62.8907 53.8757 62.6442 53.731 62.4566 53.522 62.3173 53.2433 62.1779 52.9699 62.1136 52.6376 62.1136 52.2571L62.1136 52.0106C62.1136 51.6246 62.1779 51.2923 62.3012 51.019 62.4244 50.7457 62.6067 50.5366 62.8425 50.3919 63.0783 50.2472 63.357 50.1775 63.684 50.1775 64.1342 50.1775 64.4772 50.2847 64.7184 50.5045 64.9596 50.7242 65.1043 51.019 65.1525 51.3995L64.4879 51.3995C64.4183 50.9493 64.1556 50.7242 63.7001 50.7242 63.3999 50.7242 63.1748 50.8368 63.0247 51.0565 62.8747 51.2763 62.7996 51.5925 62.7996 52.0106L62.7996 52.2625C62.7996 52.5358 62.8371 52.7716 62.9122 52.9646 62.9872 53.1575 63.0998 53.3022 63.2445 53.4041 63.3892 53.5059 63.5661 53.5541 63.7644 53.5541 63.9627 53.5541 64.1181 53.5327 64.2253 53.4898 64.3325 53.4469 64.4183 53.3934 64.4772 53.3344L64.4772 52.6001 63.7001 52.6001 63.7001 52.0856 65.1525 52.0856 65.1525 53.5541C65.04 53.6989 64.8738 53.8275 64.6487 53.9347Z" fill="#231F20" fill-rule="nonzero" fill-opacity="1" transform="matrix(1 0 0 1.07964 329.111 9)"/><path d="M70.0835 53.4952 70.0835 54.0419 67.5858 54.0419 67.5858 50.2311 70.0674 50.2311 70.0674 50.7778 68.2612 50.7778 68.2612 51.8122 69.8208 51.8122 69.8208 52.3482 68.2612 52.3482 68.2612 53.5005 70.0835 53.5005Z" fill="#231F20" fill-rule="nonzero" fill-opacity="1" transform="matrix(1 0 0 1.07964 329.111 9)"/><path d="M72.7365 54.4385C72.6454 54.6314 72.5275 54.7869 72.3774 54.9101L72.029 54.7065C72.1148 54.5618 72.1845 54.4331 72.2273 54.3099 72.2702 54.1866 72.297 54.0526 72.297 53.8972L72.297 53.4148 72.8759 53.4148 72.8759 53.8757C72.8759 54.058 72.8276 54.2455 72.7365 54.4331Z" fill="#231F20" fill-rule="nonzero" fill-opacity="1" transform="matrix(1 0 0 1.07964 329.111 9)"/><path d="M80.4116 50.2311 81.162 50.2311 79.8864 52.643 79.8864 54.0419 79.2057 54.0419 79.2057 52.643 77.9301 50.2311 78.6804 50.2311 79.5433 52.0213 80.4116 50.2311Z" fill="#231F20" fill-rule="nonzero" fill-opacity="1" transform="matrix(1 0 0 1.07964 329.111 9)"/><path d="M86.05 53.2218C85.916 53.5005 85.7338 53.7149 85.4926 53.865 85.2514 54.0151 84.9781 54.0901 84.6619 54.0901 84.3456 54.0901 84.0776 54.0151 83.8365 53.865 83.5953 53.7149 83.4077 53.5005 83.2737 53.2165 83.1397 52.9378 83.07 52.6055 83.07 52.2249L83.07 52.032C83.07 51.6515 83.1343 51.3245 83.2683 51.0404 83.4023 50.7617 83.5899 50.542 83.8257 50.3919 84.0669 50.2418 84.3403 50.1668 84.6511 50.1668 84.962 50.1668 85.2407 50.2418 85.4819 50.3919 85.7231 50.542 85.9053 50.7564 86.0393 51.0404 86.1733 51.3191 86.2376 51.6515 86.2376 52.032L86.2376 52.2249C86.2376 52.6055 86.1733 52.9378 86.0393 53.2165ZM85.3318 51.0726C85.1764 50.8475 84.9513 50.7403 84.6619 50.7403 84.4743 50.7403 84.3135 50.7885 84.1795 50.8904 84.0455 50.9922 83.9383 51.1369 83.8686 51.3299 83.7936 51.5228 83.7614 51.7586 83.7614 52.0373L83.7614 52.2357C83.7614 52.5144 83.7989 52.7502 83.874 52.9431 83.949 53.1361 84.0508 53.2862 84.1902 53.388 84.3296 53.4898 84.4903 53.5381 84.6779 53.5381 84.9674 53.5381 85.1925 53.4255 85.3479 53.2058 85.5033 52.9807 85.5837 52.6591 85.5837 52.2357L85.5837 52.0373C85.5837 51.6139 85.5033 51.2977 85.3479 51.0726Z" fill="#231F20" fill-rule="nonzero" fill-opacity="1" transform="matrix(1 0 0 1.07964 329.111 9)"/><path d="M91.4097 52.7716C91.4097 53.0557 91.3454 53.2969 91.2221 53.4952 91.0989 53.6935 90.9273 53.8436 90.713 53.9454 90.4986 54.0472 90.252 54.0955 89.984 54.0955 89.7161 54.0955 89.4588 54.0472 89.2444 53.9454 89.03 53.8436 88.8585 53.6989 88.7406 53.5005 88.6173 53.3022 88.5584 53.0611 88.5584 52.777L88.5584 50.2365 89.2337 50.2365 89.2337 52.777C89.2337 53.0396 89.298 53.2326 89.432 53.3612 89.566 53.4898 89.7482 53.5541 89.984 53.5541 90.2199 53.5541 90.4074 53.4898 90.5414 53.3612 90.6701 53.2326 90.7344 53.0396 90.7344 52.777L90.7344 50.2365 91.4097 50.2365 91.4097 52.777Z" fill="#231F20" fill-rule="nonzero" fill-opacity="1" transform="matrix(1 0 0 1.07964 329.111 9)"/><path d="M96.7105 54.0044 96.7105 54.0365 95.9815 54.0365 95.2258 52.5787 94.5023 52.5787 94.5023 54.0365 93.8269 54.0365 93.8269 50.2258 95.1776 50.2258C95.6171 50.2258 95.9547 50.3222 96.1959 50.5206 96.4371 50.7189 96.555 51.0029 96.555 51.3727 96.555 51.6246 96.4961 51.839 96.3728 52.0106 96.2549 52.1874 96.0834 52.3214 95.8583 52.4125L96.7105 53.999ZM94.5023 52.032 95.1776 52.032C95.4027 52.032 95.5796 51.973 95.6975 51.8605 95.8154 51.7479 95.8744 51.5979 95.8744 51.4103 95.8744 51.2066 95.8154 51.0512 95.7028 50.944 95.5903 50.8314 95.4134 50.7778 95.1722 50.7778L94.5023 50.7778 94.5023 52.0373Z" fill="#231F20" fill-rule="nonzero" fill-opacity="1" transform="matrix(1 0 0 1.07964 329.111 9)"/><path d="M102.622 50.7778 102.622 51.8926 104.155 51.8926 104.155 52.4393 102.622 52.4393 102.622 54.0472 101.947 54.0472 101.947 50.2365 104.375 50.2365 104.375 50.7832 102.622 50.7832Z" fill="#231F20" fill-rule="nonzero" fill-opacity="1" transform="matrix(1 0 0 1.07964 329.111 9)"/><path d="M109.408 52.7716C109.408 53.0557 109.343 53.2969 109.22 53.4952 109.097 53.6935 108.925 53.8436 108.711 53.9454 108.496 54.0472 108.25 54.0955 107.982 54.0955 107.714 54.0955 107.457 54.0472 107.242 53.9454 107.028 53.8436 106.856 53.6989 106.738 53.5005 106.615 53.3022 106.556 53.0611 106.556 52.777L106.556 50.2365 107.232 50.2365 107.232 52.777C107.232 53.0396 107.296 53.2326 107.43 53.3612 107.564 53.4898 107.746 53.5541 107.982 53.5541 108.218 53.5541 108.405 53.4898 108.539 53.3612 108.668 53.2326 108.732 53.0396 108.732 52.777L108.732 50.2365 109.408 50.2365 109.408 52.777Z" fill="#231F20" fill-rule="nonzero" fill-opacity="1" transform="matrix(1 0 0 1.07964 329.111 9)"/><path d="M114.59 50.7778 113.406 50.7778 113.406 54.0419 112.731 54.0419 112.731 50.7778 111.557 50.7778 111.557 50.2311 114.59 50.2311 114.59 50.7778Z" fill="#231F20" fill-rule="nonzero" fill-opacity="1" transform="matrix(1 0 0 1.07964 329.111 9)"/><path d="M119.596 52.7716C119.596 53.0557 119.532 53.2969 119.409 53.4952 119.286 53.6935 119.114 53.8436 118.9 53.9454 118.685 54.0472 118.439 54.0955 118.171 54.0955 117.903 54.0955 117.645 54.0472 117.431 53.9454 117.217 53.8436 117.045 53.6989 116.927 53.5005 116.804 53.3022 116.745 53.0611 116.745 52.777L116.745 50.2365 117.42 50.2365 117.42 52.777C117.42 53.0396 117.485 53.2326 117.619 53.3612 117.753 53.4898 117.935 53.5541 118.171 53.5541 118.407 53.5541 118.594 53.4898 118.728 53.3612 118.857 53.2326 118.921 53.0396 118.921 52.777L118.921 50.2365 119.596 50.2365 119.596 52.777Z" fill="#231F20" fill-rule="nonzero" fill-opacity="1" transform="matrix(1 0 0 1.07964 329.111 9)"/><path d="M124.897 54.0044 124.897 54.0365 124.168 54.0365 123.412 52.5787 122.689 52.5787 122.689 54.0365 122.014 54.0365 122.014 50.2258 123.364 50.2258C123.804 50.2258 124.141 50.3222 124.383 50.5206 124.624 50.7189 124.742 51.0029 124.742 51.3727 124.742 51.6246 124.683 51.839 124.559 52.0106 124.442 52.1874 124.27 52.3214 124.045 52.4125L124.897 53.999ZM122.689 52.032 123.364 52.032C123.589 52.032 123.766 51.973 123.884 51.8605 124.002 51.7479 124.061 51.5979 124.061 51.4103 124.061 51.2066 124.002 51.0512 123.89 50.944 123.777 50.8314 123.6 50.7778 123.359 50.7778L122.689 50.7778 122.689 52.0373Z" fill="#231F20" fill-rule="nonzero" fill-opacity="1" transform="matrix(1 0 0 1.07964 329.111 9)"/><path d="M129.587 53.4952 129.587 54.0419 127.089 54.0419 127.089 50.2311 129.571 50.2311 129.571 50.7778 127.765 50.7778 127.765 51.8122 129.324 51.8122 129.324 52.3482 127.765 52.3482 127.765 53.5005 129.587 53.5005Z" fill="#231F20" fill-rule="nonzero" fill-opacity="1" transform="matrix(1 0 0 1.07964 329.111 9)"/><path d="M65.8547 11.6788 65.8547 5.94927 56.6574 5.94927 53.7525 8.01275 53.7525 21.1547 59.8036 21.1547 59.8036 11.6788 65.8547 11.6788Z" fill="#3C5BA8" fill-rule="nonzero" fill-opacity="1" transform="matrix(1 0 0 1.07964 329.111 9)"/><path d="M65.8547 11.6788 65.8547 21.1547 59.8036 21.1547 59.8036 23.5773 71.7021 23.5773 71.7021 11.6788 65.8547 11.6788Z" fill="#EF4A23" fill-rule="nonzero" fill-opacity="1" transform="matrix(1 0 0 1.07964 329.111 9)"/></g></g></g></g></g></svg>